# xmcd
#
# Track frame offsets:
#	150
#	19595
#	39847
#	60175
#	75442
#	92287
#	112245
#	129282
#	150715
#	166210
#	184720
#	204392
#	218392
#
# Disc length: 3141
#
# Revision: 2
# Processed by: cddbd v1.5.1PL0 Copyright (c) Steve Scherf et al.
# Submitted via: dBpowerAMP V4.0
# Normalized: r0:DSETVAR1,TDELIM( - );r1:TSWAP
#
DISCID=8c0c430d
DTITLE=Various Artist - Capitol - Welcome To Nashville
DYEAR=2003
DGENRE=Country
TTITLE0=Jennifer Hanson - Beautiful Goodbye
TTITLE1=Jennifer Hanson - All Those Yesterdays
TTITLE2=Trace Adkins - Then They Do
TTITLE3=Trace Adkins - Chrome
TTITLE4=Chris Cagle - What A Beautiful Day
TTITLE5=Chris Cagle - I'd Be Lyin'
TTITLE6=Keith Urban - You Look Good In My Shirt
TTITLE7=Keith Urban - Raining On A Sunday
TTITLE8=Susan Ashton - Breakin' Up
TTITLE9=Susan Ashton - I Don't Wanna Be That Strong
TTITLE10=Dierks Bentley - What Was I Thinkin'
TTITLE11=Dierks Bentley - Distant Shore
TTITLE12=Nitty Gritty Dirt Band - The Lowlands
EXTD=
EXTT0=
EXTT1=
EXTT2=
EXTT3=
EXTT4=
EXTT5=
EXTT6=
EXTT7=
EXTT8=
EXTT9=
EXTT10=
EXTT11=
EXTT12=
PLAYORDER=
